<svg xmlns="http://www.w3.org/2000/svg" width="24.543" height="18.001" viewBox="0 0 24.543 18.001">
  <g id="added-to-cart" transform="translate(-0.381 -8.063)">
    <g id="Group_3838" data-name="Group 3838" transform="translate(12.012 11.805)">
      <path id="Path_3310" data-name="Path 3310" d="M23.543,19.287a.475.475,0,0,1-.308-.132l-1.8-1.8A.4.4,0,1,1,22,16.779l1.5,1.5,3.3-3.343a.4.4,0,0,1,.572.572l-3.607,3.607C23.763,19.243,23.631,19.287,23.543,19.287Z" transform="translate(-21.3 -14.8)"/>
    </g>
    <g id="Group_3839" data-name="Group 3839" transform="translate(7.505 21.051)">
      <path id="Path_3311" data-name="Path 3311" d="M15.907,36.215A2.506,2.506,0,0,1,13.4,33.708a2.507,2.507,0,0,1,5.015,0A2.506,2.506,0,0,1,15.907,36.215Zm0-4.135a1.672,1.672,0,1,0,1.672,1.672A1.7,1.7,0,0,0,15.907,32.08Z" transform="translate(-13.4 -31.201)"/>
    </g>
    <g id="Group_3840" data-name="Group 3840" transform="translate(17.377 21.051)">
      <path id="Path_3312" data-name="Path 3312" d="M31.408,36.215A2.506,2.506,0,0,1,28.9,33.708,2.479,2.479,0,0,1,31.408,31.2a2.506,2.506,0,0,1,2.507,2.507A2.479,2.479,0,0,1,31.408,36.215Zm0-4.135a1.672,1.672,0,1,0,1.672,1.672A1.671,1.671,0,0,0,31.408,32.08Z" transform="translate(-28.901 -31.201)"/>
    </g>
    <g id="Group_3841" data-name="Group 3841" transform="translate(0.381 8.064)">
      <path id="Path_3313" data-name="Path 3313" d="M20.876,22.175H7.48a.468.468,0,0,1-.469-.386L3.727,10.918A2.065,2.065,0,0,0,.964,9.374a.489.489,0,0,1-.573-.45.605.605,0,0,1,.365-.708A3.037,3.037,0,0,1,4.717,10.6L7.845,21.017h12.77l3.18-9.65H9.982a.591.591,0,0,1-.521-.643c0-.386.208-.643.521-.643H24.42a.61.61,0,0,1,.417.257.755.755,0,0,1,.053.579L21.345,21.789A.468.468,0,0,1,20.876,22.175Z" transform="translate(-0.381 -8.064)"/>
    </g>
  </g>
</svg>
