<svg xmlns="http://www.w3.org/2000/svg" width="22.436" height="20" viewBox="0 0 22.436 20">
  <g id="home_1_" data-name="home (1)" transform="translate(0 -27.798)">
    <g id="Group_4092" data-name="Group 4092" transform="translate(-0.001 27.798)">
      <g id="Group_4091" data-name="Group 4091" transform="translate(0 0)">
        <path id="Path_3925" data-name="Path 3925" d="M22.2,34.747,11.562,27.9a.648.648,0,0,0-.689,0L.238,34.747a.474.474,0,0,0-.126.717.636.636,0,0,0,.815.111l10.291-6.628,10.291,6.628a.635.635,0,0,0,.344.1.611.611,0,0,0,.471-.21A.474.474,0,0,0,22.2,34.747Z" transform="translate(0.001 -27.797)" fill="#6fbe0b"/>
      </g>
    </g>
    <g id="Group_4094" data-name="Group 4094" transform="translate(2.176 38.096)">
      <g id="Group_4093" data-name="Group 4093" transform="translate(0 0)">
        <path id="Path_3926" data-name="Path 3926" d="M73.933,232.543a.563.563,0,0,0-.6.513v8.163H68.508v-4.456a3.054,3.054,0,0,0-6.028,0v4.456H57.658v-8.163a.611.611,0,0,0-1.206,0v8.675a.563.563,0,0,0,.6.513h6.028a.572.572,0,0,0,.6-.473.33.33,0,0,0,0-.04v-4.969a1.832,1.832,0,0,1,3.617,0v4.969a.321.321,0,0,0,0,.039.572.572,0,0,0,.6.473h6.028a.563.563,0,0,0,.6-.513v-8.675A.563.563,0,0,0,73.933,232.543Z" transform="translate(-56.452 -232.543)" fill="#6fbe0b"/>
      </g>
    </g>
  </g>
</svg>
