<svg xmlns="http://www.w3.org/2000/svg" width="20" height="25.532" viewBox="0 0 20 25.532">
  <g id="list" transform="translate(-6.5)">
    <path id="Path_3959" data-name="Path 3959" d="M20.293,0H6.5V25.532h20V6.207Zm.249,1.453,4.5,4.5h-4.5ZM7.351,24.681V.851h12.34V6.809h5.957V24.681Z" transform="translate(0)" fill="#6fbe0b"/>
    <path id="Path_3960" data-name="Path 3960" d="M33.118,21h-7.17a.448.448,0,0,0,0,.9h7.17a.448.448,0,0,0,0-.9Z" transform="translate(-11.181 -12.08)" fill="#6fbe0b"/>
    <path id="Path_3961" data-name="Path 3961" d="M18.8,18.1,16.877,19.64l-.613-.613a.448.448,0,1,0-.634.634l.9.9a.448.448,0,0,0,.6.033l2.24-1.792a.448.448,0,0,0-.56-.7Z" transform="translate(-5.218 -10.385)" fill="#6fbe0b"/>
    <path id="Path_3962" data-name="Path 3962" d="M33.118,32h-7.17a.448.448,0,0,0,0,.9h7.17a.448.448,0,0,0,0-.9Z" transform="translate(-11.181 -18.408)" fill="#6fbe0b"/>
    <path id="Path_3963" data-name="Path 3963" d="M18.8,29.1,16.877,30.64l-.613-.613a.448.448,0,1,0-.634.634l.9.9a.448.448,0,0,0,.6.033l2.24-1.792a.448.448,0,0,0-.56-.7Z" transform="translate(-5.218 -16.732)" fill="#6fbe0b"/>
    <path id="Path_3964" data-name="Path 3964" d="M33.118,43h-7.17a.448.448,0,1,0,0,.9h7.17a.448.448,0,0,0,0-.9Z" transform="translate(-11.181 -24.736)" fill="#6fbe0b"/>
    <path id="Path_3965" data-name="Path 3965" d="M18.8,40.1,16.877,41.64l-.613-.613a.448.448,0,0,0-.634.634l.9.9a.448.448,0,0,0,.6.033l2.24-1.792a.448.448,0,0,0-.56-.7Z" transform="translate(-5.218 -23.079)" fill="#6fbe0b"/>
  </g>
</svg>
