<svg id="settings" xmlns="http://www.w3.org/2000/svg" width="20" height="20" viewBox="0 0 20 20">
  <path id="Path_3968" data-name="Path 3968" d="M18.97,7.778H17.1a.718.718,0,0,1-.508-1.226l1.323-1.323a1.031,1.031,0,0,0,0-1.457L16.228,2.086a1.054,1.054,0,0,0-1.457,0L13.449,3.409A.718.718,0,0,1,12.222,2.9V1.03A1.031,1.031,0,0,0,11.193,0H8.807a1.031,1.031,0,0,0-1.03,1.03V2.9a.718.718,0,0,1-1.226.508L5.229,2.086a1.054,1.054,0,0,0-1.457,0L2.086,3.772a1.031,1.031,0,0,0,0,1.457L3.409,6.551A.718.718,0,0,1,2.9,7.778H1.03A1.031,1.031,0,0,0,0,8.807v2.385a1.031,1.031,0,0,0,1.03,1.03H2.9a.718.718,0,0,1,.508,1.226L2.086,14.771a1.031,1.031,0,0,0,0,1.457l1.686,1.686a1.054,1.054,0,0,0,1.457,0l1.323-1.323a.718.718,0,0,1,1.226.508V18.97A1.031,1.031,0,0,0,8.807,20h2.385a1.031,1.031,0,0,0,1.03-1.03V17.1a.718.718,0,0,1,1.226-.508l1.323,1.323a1.054,1.054,0,0,0,1.457,0l1.686-1.686a1.031,1.031,0,0,0,0-1.457l-1.323-1.323a.718.718,0,0,1,.509-1.226H18.97A1.031,1.031,0,0,0,20,11.193V8.807A1.031,1.031,0,0,0,18.97,7.778Zm.289,3.415a.289.289,0,0,1-.289.289H17.1a1.459,1.459,0,0,0-1.032,2.491L17.39,15.3a.289.289,0,0,1,0,.409L15.7,17.39a.289.289,0,0,1-.409,0l-1.323-1.323A1.459,1.459,0,0,0,11.481,17.1V18.97a.289.289,0,0,1-.289.289H8.807a.289.289,0,0,1-.289-.289V17.1a1.436,1.436,0,0,0-.9-1.348,1.476,1.476,0,0,0-.568-.115,1.439,1.439,0,0,0-1.023.431L4.7,17.39a.289.289,0,0,1-.409,0L2.61,15.7a.289.289,0,0,1,0-.409l1.323-1.323A1.459,1.459,0,0,0,2.9,11.481H1.03a.289.289,0,0,1-.289-.289V8.807a.289.289,0,0,1,.289-.289H2.9A1.459,1.459,0,0,0,3.933,6.027L2.61,4.7a.289.289,0,0,1,0-.409L4.3,2.61a.289.289,0,0,1,.409,0L6.027,3.932A1.459,1.459,0,0,0,8.519,2.9V1.03A.289.289,0,0,1,8.807.741h2.385a.289.289,0,0,1,.289.289V2.9a1.459,1.459,0,0,0,2.491,1.032L15.3,2.61a.289.289,0,0,1,.409,0L17.39,4.3a.289.289,0,0,1,0,.409L16.067,6.028A1.459,1.459,0,0,0,17.1,8.519H18.97a.289.289,0,0,1,.289.289Z" fill="#6fbe0b"/>
  <path id="Path_3969" data-name="Path 3969" d="M21.677,18a3.677,3.677,0,1,0,3.677,3.677A3.681,3.681,0,0,0,21.677,18Zm0,6.536a2.86,2.86,0,1,1,2.86-2.86A2.863,2.863,0,0,1,21.677,24.536Z" transform="translate(-11.677 -11.677)" fill="#6fbe0b"/>
</svg>
