<svg xmlns="http://www.w3.org/2000/svg" width="15.771" height="17.598" viewBox="0 0 15.771 17.598">
  <g id="user" transform="translate(-0.025 -0.201)">
    <g id="icons" transform="translate(0.025 0.201)">
      <g id="user-2" data-name="user" transform="translate(0 0)">
        <g id="XMLID_210_" transform="translate(0 0)">
          <g id="XMLID_212_" transform="translate(4.029)">
            <path id="Shape" d="M3.981,9.073A4.222,4.222,0,0,1,.025,4.637,4.222,4.222,0,0,1,3.981.2,4.222,4.222,0,0,1,7.937,4.637,4.222,4.222,0,0,1,3.981,9.073Zm0-7.907A3.262,3.262,0,0,0,.99,4.637,3.262,3.262,0,0,0,3.981,8.108,3.262,3.262,0,0,0,6.972,4.637,3.262,3.262,0,0,0,3.981,1.166Z" transform="translate(-0.025 -0.201)" fill="#1d1d1d" fill-rule="evenodd"/>
          </g>
          <path id="Shape-2" data-name="Shape" d="M15.27,73.925H.551a.508.508,0,0,1-.526-.482V71.577c0-.083,1.884-3.044,7.886-3.044S15.8,71.5,15.8,71.585v1.858A.508.508,0,0,1,15.27,73.925ZM1.077,72.961H14.744v-1.23c-.354-.435-2.113-2.238-6.834-2.238s-6.476,1.795-6.834,2.23Z" transform="translate(-0.025 -56.328)" fill="#1d1d1d" fill-rule="evenodd"/>
        </g>
      </g>
    </g>
  </g>
</svg>
