<svg xmlns="http://www.w3.org/2000/svg" width="20" height="23.055" viewBox="0 0 20 23.055">
  <g id="wallet" transform="translate(-21.961 0)">
    <g id="Group_4111" data-name="Group 4111" transform="translate(21.961 0)">
      <g id="Group_4110" data-name="Group 4110" transform="translate(0 0)">
        <path id="Path_3966" data-name="Path 3966" d="M41.212,3.971,34.174.159a1.484,1.484,0,0,0-1.947.584l-4.117,7.65H23.1a1.128,1.128,0,0,0-1.141,1.141v12.38A1.128,1.128,0,0,0,23.1,23.055h16a1.128,1.128,0,0,0,1.141-1.141V19.021h.473a.439.439,0,0,0,.445-.445v-3.31a.439.439,0,0,0-.445-.445h-.473V11.565a1.161,1.161,0,0,0-.89-1.113L41.8,5.918A1.458,1.458,0,0,0,41.212,3.971ZM36.2,2.274l-4.4,8.151H30.557l4.7-8.652ZM33.033,1.161a.547.547,0,0,1,.723-.223l.7.389-4.9,9.1h-1.53ZM22.823,9.507a.268.268,0,0,1,.25-.223h4.535L27,10.4H23.074a.77.77,0,0,0-.25.028V9.507Zm16.5,12.407a.249.249,0,0,1-.25.25h-16a.249.249,0,0,1-.25-.25V11.565a.249.249,0,0,1,.25-.25H39.042a.249.249,0,0,1,.25.25V14.82H37.6a1.336,1.336,0,0,0-1.335,1.335v1.53A1.336,1.336,0,0,0,37.6,19.021H39.32Zm.89-6.2h.028v2.42H37.6a.439.439,0,0,1-.445-.445v-1.53a.439.439,0,0,1,.445-.445Zm.779-10.237-2.671,4.952H32.811l4.173-7.706,3.783,2.059A.487.487,0,0,1,40.989,5.473Z" transform="translate(-21.961 0)" fill="#6fbe0b"/>
      </g>
    </g>
    <g id="Group_4113" data-name="Group 4113" transform="translate(36.649 4.75)">
      <g id="Group_4112" data-name="Group 4112">
        <path id="Path_3967" data-name="Path 3967" d="M241.144,69.377l-.24-.12a1.313,1.313,0,0,0-1.74.51l-.3.57a1.264,1.264,0,0,0-.09.99,1.208,1.208,0,0,0,.63.75l.24.12a1.366,1.366,0,0,0,.6.15,1.35,1.35,0,0,0,1.14-.66l.3-.57A1.344,1.344,0,0,0,241.144,69.377Zm-.33,1.29-.3.57a.339.339,0,0,1-.45.12l-.24-.15a.441.441,0,0,1-.15-.18.227.227,0,0,1,.03-.24l.3-.57a.4.4,0,0,1,.3-.18.271.271,0,0,1,.15.03l.24.12A.467.467,0,0,1,240.814,70.668Z" transform="translate(-238.71 -69.108)" fill="#6fbe0b"/>
      </g>
    </g>
  </g>
</svg>
