<svg xmlns="http://www.w3.org/2000/svg" width="20.064" height="18.655" viewBox="0 0 20.064 18.655">
  <g id="like" transform="translate(0 -1.826)">
    <path id="Path_3849" data-name="Path 3849" d="M20.032,7.389c-.293-3.224-2.575-5.562-5.43-5.562A5.4,5.4,0,0,0,9.977,4.491,5.2,5.2,0,0,0,5.463,1.826C2.608,1.826.326,4.165.034,7.388A5.736,5.736,0,0,0,.2,9.5a9.067,9.067,0,0,0,2.778,4.636l6.99,6.343,7.11-6.343A9.068,9.068,0,0,0,19.861,9.5,5.748,5.748,0,0,0,20.032,7.389Zm-.922,1.937a8.292,8.292,0,0,1-2.543,4.239L9.977,19.443,3.5,13.566A8.3,8.3,0,0,1,.956,9.325,5.012,5.012,0,0,1,.8,7.511L.8,7.472C1.052,4.648,3.012,2.6,5.463,2.6A4.523,4.523,0,0,1,9.62,5.5l.355.842.355-.842A4.662,4.662,0,0,1,14.6,2.6c2.451,0,4.412,2.05,4.668,4.911A5.006,5.006,0,0,1,19.109,9.326Z"/>
  </g>
</svg>
